<svg width="1280" height="620" viewBox="0 0 1280 620" xmlns="http://www.w3.org/2000/svg">
  <defs>
    <linearGradient id="top" x1="0" y1="0" x2="1" y2="1">
      <stop offset="0" stop-color="#0F172A"/>
      <stop offset="1" stop-color="#1D4ED8"/>
    </linearGradient>
    <filter id="shadow" x="-10%" y="-10%" width="120%" height="130%">
      <feDropShadow dx="0" dy="12" stdDeviation="16" flood-color="#0F172A" flood-opacity="0.16"/>
    </filter>
  </defs>
  <rect width="1280" height="620" rx="28" fill="#F8FAFC"/>
  <rect x="80" y="58" width="1120" height="118" rx="26" fill="url(#top)" filter="url(#shadow)"/>
  <text x="120" y="112" font-family="Inter, Arial, sans-serif" font-size="34" font-weight="800" fill="white">Final Paper Importance Report</text>
  <text x="120" y="150" font-family="Inter, Arial, sans-serif" font-size="18" fill="#BFDBFE">A project-specific decision card generated from specialist agent reports</text>
  <rect x="940" y="84" width="210" height="56" rx="28" fill="#22C55E"/>
  <text x="1045" y="120" text-anchor="middle" font-family="Inter, Arial, sans-serif" font-size="24" font-weight="800" fill="white">8.7 / 10</text>

  <g filter="url(#shadow)">
    <rect x="80" y="220" width="335" height="300" rx="24" fill="#FFFFFF" stroke="#E2E8F0"/>
    <text x="120" y="265" font-family="Inter, Arial, sans-serif" font-size="23" font-weight="800" fill="#0F172A">Verdict</text>
    <rect x="120" y="295" width="190" height="44" rx="22" fill="#DCFCE7"/>
    <text x="215" y="323" text-anchor="middle" font-family="Inter, Arial, sans-serif" font-size="18" font-weight="800" fill="#166534">Must Read</text>
    <text x="120" y="375" font-family="Inter, Arial, sans-serif" font-size="17" fill="#475569">Use Type</text>
    <text x="120" y="408" font-family="Inter, Arial, sans-serif" font-size="18" font-weight="700" fill="#0F172A">Baseline Candidate</text>
    <text x="120" y="440" font-family="Inter, Arial, sans-serif" font-size="18" font-weight="700" fill="#0F172A">Experiment Template</text>
    <text x="120" y="472" font-family="Inter, Arial, sans-serif" font-size="18" font-weight="700" fill="#0F172A">Core Related Work</text>
  </g>

  <g filter="url(#shadow)">
    <rect x="472" y="220" width="335" height="300" rx="24" fill="#FFFFFF" stroke="#E2E8F0"/>
    <text x="512" y="265" font-family="Inter, Arial, sans-serif" font-size="23" font-weight="800" fill="#0F172A">Score Breakdown</text>
    <g font-family="Inter, Arial, sans-serif" font-size="16" fill="#334155">
      <text x="512" y="310">Topic Relevance</text><rect x="665" y="295" width="96" height="18" rx="9" fill="#2563EB"/>
      <text x="512" y="350">Novelty</text><rect x="665" y="335" width="78" height="18" rx="9" fill="#7C3AED"/>
      <text x="512" y="390">Technical Depth</text><rect x="665" y="375" width="84" height="18" rx="9" fill="#0891B2"/>
      <text x="512" y="430">Experiment Value</text><rect x="665" y="415" width="92" height="18" rx="9" fill="#DB2777"/>
      <text x="512" y="470">Strategic Value</text><rect x="665" y="455" width="100" height="18" rx="9" fill="#16A34A"/>
    </g>
  </g>

  <g filter="url(#shadow)">
    <rect x="865" y="220" width="335" height="300" rx="24" fill="#FFFFFF" stroke="#E2E8F0"/>
    <text x="905" y="265" font-family="Inter, Arial, sans-serif" font-size="23" font-weight="800" fill="#0F172A">Next Actions</text>
    <g font-family="Inter, Arial, sans-serif" font-size="17" fill="#334155">
      <circle cx="914" cy="310" r="6" fill="#2563EB"/><text x="935" y="316">Read experiments deeply</text>
      <circle cx="914" cy="352" r="6" fill="#7C3AED"/><text x="935" y="358">Extract reusable metrics</text>
      <circle cx="914" cy="394" r="6" fill="#DB2777"/><text x="935" y="400">Use as baseline</text>
      <circle cx="914" cy="436" r="6" fill="#16A34A"/><text x="935" y="442">Add to related work</text>
    </g>
  </g>
</svg>
