<svg xmlns="http://www.w3.org/2000/svg" viewBox="-105.8 -1618.8 14085.5 2326.5" role="img" aria-label="Johnson &amp; Johnson"><g fill="#EB1700"><g transform="scale(1,-1)"><path transform="translate(0.0,0)" d="M1059 328Q1096 346 1162.5 372.5Q1229 399 1247 399Q1260 399 1260.0 385.0Q1260 371 1253.0 356.0Q1246 341 1238.5 330.0Q1231 319 1219 303L1204 283Q1156 215 1066 170Q1035 154 976.5 128.0Q918 102 895 90L842 10Q673 -240 559.5 -365.0Q446 -490 349.5 -546.0Q253 -602 125 -602Q63 -602 31.5 -548.5Q0 -495 0.0 -428.5Q0 -362 41.5 -291.0Q83 -220 156.0 -155.5Q229 -91 309.0 -33.5Q389 24 486 78Q643 163 791 231Q1155 767 1530 1270Q1538 1278 1538.0 1282.0Q1538 1286 1508.0 1286.0Q1478 1286 1374 1266Q1147 1220 923.0 1099.5Q699 979 539.0 823.5Q379 668 379 571Q379 522 421.0 490.5Q463 459 511.5 459.0Q560 459 611.5 483.5Q663 508 697.0 532.5Q731 557 736.0 557.0Q741 557 741 543Q741 470 702.5 417.5Q664 365 596.0 339.0Q528 313 465.5 313.0Q403 313 338.0 339.0Q273 365 227.5 420.0Q182 475 182 545Q182 575 195 616Q294 938 842 1237Q1030 1339 1262.5 1401.5Q1495 1464 1702 1464Q1740 1464 1768.0 1440.0Q1796 1416 1796.0 1389.0Q1796 1362 1792.0 1351.0Q1788 1340 1756.0 1294.0Q1724 1248 1691 1205Q1600 1087 1536.0 1002.0Q1472 917 1059 328ZM635 -6Q143 -311 143 -414Q143 -436 177.5 -436.0Q212 -436 268.0 -401.0Q324 -366 373.5 -319.0Q423 -272 479 -206Q560 -110 635 -6Z"/><path transform="translate(1314.0,0)" d="M318 678Q481 809 604 809Q659 809 687 782Q697 773 697 766V760Q711 762 741.0 762.0Q771 762 802.5 735.0Q834 708 834.0 652.5Q834 597 795.0 508.5Q756 420 688.0 328.5Q620 237 538.5 156.5Q457 76 362.5 24.5Q268 -27 191.0 -27.0Q114 -27 67.5 21.5Q21 70 21.0 156.5Q21 243 63.5 348.0Q106 453 173.0 533.5Q240 614 318 678ZM640 629H633Q598 629 598 680Q525 656 445.0 596.0Q365 536 302 454Q174 290 172 177Q172 121 213.0 121.0Q254 121 335.0 175.0Q416 229 495.5 329.0Q575 429 614.5 502.5Q654 576 654.0 602.5Q654 629 640 629Z"/><path transform="translate(2064.0,0)" d="M942 295Q949 249 949.0 222.5Q949 196 939.5 176.5Q930 157 897.5 121.5Q865 86 820 50Q710 -37 595 -37Q430 -37 430 109Q430 236 651 615Q659 629 662 635Q585 581 367.5 340.5Q150 100 78 0Q72 -9 48.0 -20.0Q24 -31 10.5 -31.0Q-3 -31 -18.5 -22.5Q-34 -14 -38 -14Q-51 -14 -51.0 -5.5Q-51 3 -15.5 86.5Q20 170 78 294Q237 636 551 1184Q661 1376 723 1456Q767 1513 871 1513Q893 1513 896.0 1500.0Q899 1487 899.0 1472.0Q899 1457 893 1442L786 1275Q468 779 307 453Q463 643 610 746Q701 811 746.5 811.0Q792 811 829.0 796.5Q866 782 866 727Q866 707 801 579Q606 195 606.0 152.5Q606 110 641 110Q692 110 798 209Q878 284 899 305Q911 314 921 314Q940 314 942 295Z"/><path transform="translate(2869.0,0)" d="M584 154Q584 110 644 110Q676 110 724.5 142.0Q773 174 812 212Q916 315 930 315Q956 315 956.0 240.0Q956 165 909 137Q766 8 688 -20Q644 -35 591.0 -34.0Q538 -33 486.0 12.0Q434 57 434.0 121.5Q434 186 468.0 268.0Q502 350 537.5 408.5Q573 467 625.0 544.5Q677 622 680 641L678 643Q645 640 514.5 513.0Q384 386 299.0 292.0Q214 198 96 41Q63 -2 42.0 -2.0Q21 -2 -14.5 11.5Q-50 25 -58.0 31.0Q-66 37 -66.0 49.0Q-66 61 -59.0 78.5Q-52 96 -45.5 107.5Q-39 119 -24.0 143.0Q-9 167 35.5 244.5Q80 322 172.0 476.0Q264 630 282 662Q320 728 344 758Q389 815 496 815Q520 815 520 785Q520 738 433 608L391 545Q564 737 683 788Q741 813 787.5 813.0Q834 813 861.5 788.0Q889 763 889.0 732.5Q889 702 868.0 659.5Q847 617 825.5 583.5Q804 550 769.0 499.0Q734 448 731.0 443.5Q728 439 715.5 419.5Q703 400 697.0 391.0Q691 382 677.0 359.5Q663 337 654.5 322.0Q646 307 633.5 285.0Q621 263 613.5 247.0Q606 231 598 212Q584 177 584 154Z"/><path transform="translate(3669.0,0)" d="M172 200 171 184Q171 159 190.0 141.0Q209 123 225 123Q345 123 437.5 159.0Q530 195 530 231Q530 248 496.5 260.5Q463 273 383.5 291.5Q304 310 268.0 320.5Q232 331 211.0 340.0Q190 349 168 365Q121 398 121.0 463.5Q121 529 169.5 593.5Q218 658 291.0 704.0Q364 750 448 785Q614 854 727 854Q838 854 864 806Q872 789 872 768V761Q872 708 849.5 678.0Q827 648 778.5 624.0Q730 600 701.5 600.0Q673 600 665.5 604.0Q658 608 653.0 614.5Q648 621 640.5 624.0Q633 627 633.0 639.0Q633 651 643.0 663.5Q653 676 657 690Q591 687 519.0 659.5Q447 632 395.5 598.0Q344 564 310.0 533.0Q276 502 276.0 487.5Q276 473 322 464Q529 423 594.0 393.0Q659 363 684.0 325.0Q709 287 709 256Q709 192 658.0 135.0Q607 78 532 42Q371 -37 251.5 -37.0Q132 -37 86.5 -0.5Q41 36 41.0 86.0Q41 136 66.5 178.5Q92 221 132.0 221.0Q172 221 172 200Z"/><path transform="translate(4422.0,0)" d="M318 678Q481 809 604 809Q659 809 687 782Q697 773 697 766V760Q711 762 741.0 762.0Q771 762 802.5 735.0Q834 708 834.0 652.5Q834 597 795.0 508.5Q756 420 688.0 328.5Q620 237 538.5 156.5Q457 76 362.5 24.5Q268 -27 191.0 -27.0Q114 -27 67.5 21.5Q21 70 21.0 156.5Q21 243 63.5 348.0Q106 453 173.0 533.5Q240 614 318 678ZM640 629H633Q598 629 598 680Q525 656 445.0 596.0Q365 536 302 454Q174 290 172 177Q172 121 213.0 121.0Q254 121 335.0 175.0Q416 229 495.5 329.0Q575 429 614.5 502.5Q654 576 654.0 602.5Q654 629 640 629Z"/><path transform="translate(5172.0,0)" d="M584 154Q584 110 644 110Q676 110 724.5 142.0Q773 174 812 212Q916 315 930 315Q956 315 956.0 240.0Q956 165 909 137Q766 8 688 -20Q644 -35 591.0 -34.0Q538 -33 486.0 12.0Q434 57 434.0 121.5Q434 186 468.0 268.0Q502 350 537.5 408.5Q573 467 625.0 544.5Q677 622 680 641L678 643Q645 640 514.5 513.0Q384 386 299.0 292.0Q214 198 96 41Q63 -2 42.0 -2.0Q21 -2 -14.5 11.5Q-50 25 -58.0 31.0Q-66 37 -66.0 49.0Q-66 61 -59.0 78.5Q-52 96 -45.5 107.5Q-39 119 -24.0 143.0Q-9 167 35.5 244.5Q80 322 172.0 476.0Q264 630 282 662Q320 728 344 758Q389 815 496 815Q520 815 520 785Q520 738 433 608L391 545Q564 737 683 788Q741 813 787.5 813.0Q834 813 861.5 788.0Q889 763 889.0 732.5Q889 702 868.0 659.5Q847 617 825.5 583.5Q804 550 769.0 499.0Q734 448 731.0 443.5Q728 439 715.5 419.5Q703 400 697.0 391.0Q691 382 677.0 359.5Q663 337 654.5 322.0Q646 307 633.5 285.0Q621 263 613.5 247.0Q606 231 598 212Q584 177 584 154Z"/><path transform="translate(6397.0,0)" d="M219 423Q219 596 433 707Q352 753 352.0 836.0Q352 919 427 992Q575 1137 843 1182Q963 1417 968 1425Q985 1456 1039.0 1474.5Q1093 1493 1110 1493Q1143 1493 1143 1466Q1143 1459 1126 1429Q1062 1308 1000 1188Q1055 1185 1086.0 1162.0Q1117 1139 1117.0 1101.0Q1117 1063 1091.0 1027.5Q1065 992 1026 972Q950 932 877 932H867L828 854L839 855Q879 855 896.5 818.0Q914 781 914.0 769.0Q914 757 907.0 748.5Q900 740 887.0 731.0Q874 722 868.5 717.0Q863 712 852.0 706.0Q841 700 831.5 696.5Q822 693 809.5 690.0Q797 687 790 686Q762 680 757 680L738 674Q722 642 702.5 604.0Q683 566 658.5 515.5Q634 465 619 436Q724 474 831.5 537.5Q939 601 958.0 632.5Q977 664 991 664Q1012 664 1029.5 634.5Q1047 605 1047 579Q1047 515 972.5 441.0Q898 367 776.5 311.0Q655 255 531 242Q433 22 421.5 3.0Q410 -16 381.5 -19.0Q353 -22 341.0 -22.0Q329 -22 313.5 -14.5Q298 -7 296.5 -0.5Q295 6 291.0 16.0Q287 26 287.0 40.5Q287 55 380 246Q306 262 262.5 309.0Q219 356 219 423ZM748 993Q663 957 590.0 906.5Q517 856 517.0 838.0Q517 820 554 820Q557 820 570.0 821.5Q583 823 610.5 825.5Q638 828 666 831Q683 863 711.0 919.5Q739 976 748 993ZM554 606Q413 536 413 453Q413 408 453 403Q471 437 504.5 506.0Q538 575 554 606Z"/><path transform="translate(7746.0,0)" d="M1059 328Q1096 346 1162.5 372.5Q1229 399 1247 399Q1260 399 1260.0 385.0Q1260 371 1253.0 356.0Q1246 341 1238.5 330.0Q1231 319 1219 303L1204 283Q1156 215 1066 170Q1035 154 976.5 128.0Q918 102 895 90L842 10Q673 -240 559.5 -365.0Q446 -490 349.5 -546.0Q253 -602 125 -602Q63 -602 31.5 -548.5Q0 -495 0.0 -428.5Q0 -362 41.5 -291.0Q83 -220 156.0 -155.5Q229 -91 309.0 -33.5Q389 24 486 78Q643 163 791 231Q1155 767 1530 1270Q1538 1278 1538.0 1282.0Q1538 1286 1508.0 1286.0Q1478 1286 1374 1266Q1147 1220 923.0 1099.5Q699 979 539.0 823.5Q379 668 379 571Q379 522 421.0 490.5Q463 459 511.5 459.0Q560 459 611.5 483.5Q663 508 697.0 532.5Q731 557 736.0 557.0Q741 557 741 543Q741 470 702.5 417.5Q664 365 596.0 339.0Q528 313 465.5 313.0Q403 313 338.0 339.0Q273 365 227.5 420.0Q182 475 182 545Q182 575 195 616Q294 938 842 1237Q1030 1339 1262.5 1401.5Q1495 1464 1702 1464Q1740 1464 1768.0 1440.0Q1796 1416 1796.0 1389.0Q1796 1362 1792.0 1351.0Q1788 1340 1756.0 1294.0Q1724 1248 1691 1205Q1600 1087 1536.0 1002.0Q1472 917 1059 328ZM635 -6Q143 -311 143 -414Q143 -436 177.5 -436.0Q212 -436 268.0 -401.0Q324 -366 373.5 -319.0Q423 -272 479 -206Q560 -110 635 -6Z"/><path transform="translate(9060.0,0)" d="M318 678Q481 809 604 809Q659 809 687 782Q697 773 697 766V760Q711 762 741.0 762.0Q771 762 802.5 735.0Q834 708 834.0 652.5Q834 597 795.0 508.5Q756 420 688.0 328.5Q620 237 538.5 156.5Q457 76 362.5 24.5Q268 -27 191.0 -27.0Q114 -27 67.5 21.5Q21 70 21.0 156.5Q21 243 63.5 348.0Q106 453 173.0 533.5Q240 614 318 678ZM640 629H633Q598 629 598 680Q525 656 445.0 596.0Q365 536 302 454Q174 290 172 177Q172 121 213.0 121.0Q254 121 335.0 175.0Q416 229 495.5 329.0Q575 429 614.5 502.5Q654 576 654.0 602.5Q654 629 640 629Z"/><path transform="translate(9810.0,0)" d="M942 295Q949 249 949.0 222.5Q949 196 939.5 176.5Q930 157 897.5 121.5Q865 86 820 50Q710 -37 595 -37Q430 -37 430 109Q430 236 651 615Q659 629 662 635Q585 581 367.5 340.5Q150 100 78 0Q72 -9 48.0 -20.0Q24 -31 10.5 -31.0Q-3 -31 -18.5 -22.5Q-34 -14 -38 -14Q-51 -14 -51.0 -5.5Q-51 3 -15.5 86.5Q20 170 78 294Q237 636 551 1184Q661 1376 723 1456Q767 1513 871 1513Q893 1513 896.0 1500.0Q899 1487 899.0 1472.0Q899 1457 893 1442L786 1275Q468 779 307 453Q463 643 610 746Q701 811 746.5 811.0Q792 811 829.0 796.5Q866 782 866 727Q866 707 801 579Q606 195 606.0 152.5Q606 110 641 110Q692 110 798 209Q878 284 899 305Q911 314 921 314Q940 314 942 295Z"/><path transform="translate(10615.0,0)" d="M584 154Q584 110 644 110Q676 110 724.5 142.0Q773 174 812 212Q916 315 930 315Q956 315 956.0 240.0Q956 165 909 137Q766 8 688 -20Q644 -35 591.0 -34.0Q538 -33 486.0 12.0Q434 57 434.0 121.5Q434 186 468.0 268.0Q502 350 537.5 408.5Q573 467 625.0 544.5Q677 622 680 641L678 643Q645 640 514.5 513.0Q384 386 299.0 292.0Q214 198 96 41Q63 -2 42.0 -2.0Q21 -2 -14.5 11.5Q-50 25 -58.0 31.0Q-66 37 -66.0 49.0Q-66 61 -59.0 78.5Q-52 96 -45.5 107.5Q-39 119 -24.0 143.0Q-9 167 35.5 244.5Q80 322 172.0 476.0Q264 630 282 662Q320 728 344 758Q389 815 496 815Q520 815 520 785Q520 738 433 608L391 545Q564 737 683 788Q741 813 787.5 813.0Q834 813 861.5 788.0Q889 763 889.0 732.5Q889 702 868.0 659.5Q847 617 825.5 583.5Q804 550 769.0 499.0Q734 448 731.0 443.5Q728 439 715.5 419.5Q703 400 697.0 391.0Q691 382 677.0 359.5Q663 337 654.5 322.0Q646 307 633.5 285.0Q621 263 613.5 247.0Q606 231 598 212Q584 177 584 154Z"/><path transform="translate(11415.0,0)" d="M172 200 171 184Q171 159 190.0 141.0Q209 123 225 123Q345 123 437.5 159.0Q530 195 530 231Q530 248 496.5 260.5Q463 273 383.5 291.5Q304 310 268.0 320.5Q232 331 211.0 340.0Q190 349 168 365Q121 398 121.0 463.5Q121 529 169.5 593.5Q218 658 291.0 704.0Q364 750 448 785Q614 854 727 854Q838 854 864 806Q872 789 872 768V761Q872 708 849.5 678.0Q827 648 778.5 624.0Q730 600 701.5 600.0Q673 600 665.5 604.0Q658 608 653.0 614.5Q648 621 640.5 624.0Q633 627 633.0 639.0Q633 651 643.0 663.5Q653 676 657 690Q591 687 519.0 659.5Q447 632 395.5 598.0Q344 564 310.0 533.0Q276 502 276.0 487.5Q276 473 322 464Q529 423 594.0 393.0Q659 363 684.0 325.0Q709 287 709 256Q709 192 658.0 135.0Q607 78 532 42Q371 -37 251.5 -37.0Q132 -37 86.5 -0.5Q41 36 41.0 86.0Q41 136 66.5 178.5Q92 221 132.0 221.0Q172 221 172 200Z"/><path transform="translate(12168.0,0)" d="M318 678Q481 809 604 809Q659 809 687 782Q697 773 697 766V760Q711 762 741.0 762.0Q771 762 802.5 735.0Q834 708 834.0 652.5Q834 597 795.0 508.5Q756 420 688.0 328.5Q620 237 538.5 156.5Q457 76 362.5 24.5Q268 -27 191.0 -27.0Q114 -27 67.5 21.5Q21 70 21.0 156.5Q21 243 63.5 348.0Q106 453 173.0 533.5Q240 614 318 678ZM640 629H633Q598 629 598 680Q525 656 445.0 596.0Q365 536 302 454Q174 290 172 177Q172 121 213.0 121.0Q254 121 335.0 175.0Q416 229 495.5 329.0Q575 429 614.5 502.5Q654 576 654.0 602.5Q654 629 640 629Z"/><path transform="translate(12918.0,0)" d="M584 154Q584 110 644 110Q676 110 724.5 142.0Q773 174 812 212Q916 315 930 315Q956 315 956.0 240.0Q956 165 909 137Q766 8 688 -20Q644 -35 591.0 -34.0Q538 -33 486.0 12.0Q434 57 434.0 121.5Q434 186 468.0 268.0Q502 350 537.5 408.5Q573 467 625.0 544.5Q677 622 680 641L678 643Q645 640 514.5 513.0Q384 386 299.0 292.0Q214 198 96 41Q63 -2 42.0 -2.0Q21 -2 -14.5 11.5Q-50 25 -58.0 31.0Q-66 37 -66.0 49.0Q-66 61 -59.0 78.5Q-52 96 -45.5 107.5Q-39 119 -24.0 143.0Q-9 167 35.5 244.5Q80 322 172.0 476.0Q264 630 282 662Q320 728 344 758Q389 815 496 815Q520 815 520 785Q520 738 433 608L391 545Q564 737 683 788Q741 813 787.5 813.0Q834 813 861.5 788.0Q889 763 889.0 732.5Q889 702 868.0 659.5Q847 617 825.5 583.5Q804 550 769.0 499.0Q734 448 731.0 443.5Q728 439 715.5 419.5Q703 400 697.0 391.0Q691 382 677.0 359.5Q663 337 654.5 322.0Q646 307 633.5 285.0Q621 263 613.5 247.0Q606 231 598 212Q584 177 584 154Z"/></g></g></svg>